<?xml version="1.0" standalone="no"?>
<!DOCTYPE svg PUBLIC "-//W3C//DTD SVG 20010904//EN"
 "http://www.w3.org/TR/2001/REC-SVG-20010904/DTD/svg10.dtd">
<svg version="1.0" xmlns="http://www.w3.org/2000/svg"
 width="174.000000pt" height="174.000000pt" viewBox="0 0 174.000000 174.000000"
 preserveAspectRatio="xMidYMid meet">

<g transform="translate(0.000000,174.000000) scale(0.100000,-0.100000)"
fill="#000000" stroke="none">
<path d="M1512 1733 c-66 -13 -1402 -468 -1429 -486 -88 -59 -100 -214 -22
-283 13 -12 143 -85 289 -164 146 -78 274 -152 285 -164 11 -12 88 -145 170
-295 127 -232 155 -278 188 -299 80 -53 202 -32 253 45 18 27 443 1272 482
1412 23 83 -18 180 -90 214 -39 18 -93 27 -126 20z m-412 -548 c-234 -234
-428 -425 -431 -425 -16 0 -526 282 -536 297 -19 26 -15 68 8 89 20 18 1369
476 1379 467 2 -2 -187 -195 -420 -428z m510 332 c0 -2 -101 -307 -225 -678
-182 -543 -230 -678 -251 -696 -30 -28 -55 -29 -83 -5 -11 9 -84 134 -160 277
l-140 260 422 422 c372 372 437 435 437 420z"/>
</g>
</svg>
