<?xml version="1.0" standalone="no"?>
<!DOCTYPE svg PUBLIC "-//W3C//DTD SVG 20010904//EN"
 "http://www.w3.org/TR/2001/REC-SVG-20010904/DTD/svg10.dtd">
<svg version="1.0" xmlns="http://www.w3.org/2000/svg"
 width="185.000000pt" height="185.000000pt" viewBox="0 0 185.000000 185.000000"
 preserveAspectRatio="xMidYMid meet">

<g transform="translate(0.000000,185.000000) scale(0.100000,-0.100000)"
fill="#000000" stroke="none">
<path d="M860 1589 c-410 -137 -756 -257 -770 -267 -90 -67 -103 -206 -27
-288 21 -22 137 -90 325 -192 l294 -157 157 -290 c87 -160 174 -306 193 -326
47 -48 113 -67 177 -50 54 14 105 51 125 89 7 15 125 358 261 762 229 682 246
739 243 792 -3 45 -11 66 -34 95 -38 48 -106 83 -159 82 -24 0 -334 -99 -785
-250z m313 -329 c-245 -248 -450 -450 -457 -450 -21 0 -551 290 -568 311 -24
29 -22 65 5 92 15 14 248 97 727 258 388 130 712 237 721 237 9 1 -184 -200
-428 -448z m298 -367 c-195 -580 -246 -722 -267 -740 -30 -28 -54 -29 -84 -5
-12 10 -88 141 -170 292 l-148 275 451 452 c248 249 453 450 455 448 2 -2
-105 -327 -237 -722z"/>
</g>
</svg>
