<?xml version="1.0" encoding="UTF-8"?>
<svg id="svg5" xmlns="http://www.w3.org/2000/svg" version="1.1" viewBox="0 0 512 512">
  <!-- Generator: Adobe Illustrator 29.1.0, SVG Export Plug-In . SVG Version: 2.1.0 Build 142)  -->
  <defs>
    <style>
      .st0 {
        fill: #d7dfff;
      }

      .st1 {
        fill: #4147d5;
      }
    </style>
  </defs>
  <path class="st0" d="M191.2,235.2h-85.3c-17.1,0-32-14.9-32-32v-85.3c0-17.1,14.9-32,32-32h85.3c17.1,0,32,14.9,32,32v85.3c0,17.1-14.9,32-32,32ZM116.5,192.5h64v-64h-64v64Z"/>
  <path class="st0" d="M191.2,427.2h-85.3c-17.1,0-32-14.9-32-32v-85.3c0-17.1,14.9-32,32-32h85.3c17.1,0,32,14.9,32,32v85.3c0,17.1-14.9,32-32,32ZM116.5,384.5h64v-64h-64v64Z"/>
  <g>
    <path class="st1" d="M287.2,299.2c6.4,0,10.7,2.1,14.9,6.4l49.1,49.1,49.1-49.1c8.5-8.5,21.3-8.5,29.9,0s8.5,21.3,0,29.9l-64,64c-8.5,8.5-21.3,8.5-29.9,0l-64-64c-8.5-8.5-8.5-21.3,0-29.9,4.3-4.3,8.5-6.4,14.9-6.4h0Z"/>
    <path class="st1" d="M351.2,107.2c12.8,0,21.3,8.5,21.3,21.3v256c0,12.8-8.5,21.3-21.3,21.3s-21.3-8.5-21.3-21.3V128.5c0-12.8,8.5-21.3,21.3-21.3Z"/>
  </g>
</svg>